<?xml version="1.0" standalone="no"?><!DOCTYPE svg PUBLIC "-//W3C//DTD SVG 1.1//EN" "http://www.w3.org/Graphics/SVG/1.1/DTD/svg11.dtd"><svg t="1591159155918" class="icon" viewBox="0 0 1024 1024" version="1.1" xmlns="http://www.w3.org/2000/svg" p-id="2069" xmlns:xlink="http://www.w3.org/1999/xlink" width="200" height="200"><defs><style type="text/css"></style></defs><path d="M774.4 506.9c-77-49.2-167.4-75.3-261.4-75.3-95 0-186.2 26.5-263.7 76.8-75.6 49-133.1 93.4-166.1 172.8v167.4l21.3 7.8c31.5-86.3 86.3-160 158.3-213.2 73.6-54.3 160.1-83 250.3-83 89.2 0 174.9 28.1 248 81.4 71.5 52 126.3 124.4 158.5 209.4l21.2-8V677.2c-33.7-78.2-91.3-122.3-166.4-170.3z" fill="#DAE4F2" p-id="2070"></path><path d="M124.1 677.7c25.4-35.3 55.9-66.8 91-93.6 34.3-26.2 72.1-47.4 112.7-63.2l10 20.5c-39.2 15.1-75.8 35.5-108.9 60.7-33.5 25.6-62.6 55.5-86.7 89.2l-18.1-13.6zM884.9 691.3C838 625 771.2 572.5 694.3 541.3l9.9-20.5c80.1 32.8 149.7 87.7 198.8 156.8l-18.1 13.7z" fill="#A9B9D9" p-id="2071"></path><path d="M300.9 496.2c-47.5 19.1-89.9 44.3-126.2 74.9-27.5 23.2-50.5 48.8-68.8 76.3v149.2c34-68 82.9-126.4 143.5-171.1 77.5-57.2 168.7-87.4 263.7-87.4 94 0 184.4 29.6 261.4 85.7 60.3 43.9 109.3 101.6 143.7 168.7V644.1c-43-63-110.1-114.6-192.9-148-24.2 9.9 44-22.5 27.2-13.1 131.8 54.3 188.4 154.1 188.4 154.1v206.3l-21.2 8c-32.2-84.9-87-157.3-158.5-209.4-73.1-53.2-158.9-81.4-248-81.4-90.1 0-176.7 28.7-250.3 83-72 53.2-126.8 126.9-158.3 213.2L83.3 849V637.4s66.3-106.2 190.5-154.3c-0.2 0 51.6 23 27.1 13.1z" fill="#A9B9D9" p-id="2072"></path><path d="M624.7 390.1c59.5-79.2 128.5-132.9 175.9-163.9 24.8-16.2 46.5-28.2 62.3-36.2 5.4-2.7 11.8 1.3 11.6 7.3-0.8 30.4-5.1 79.7-22 129.8-15.7 46.6-39.2 84.8-69.7 113.5-38 35.7-87.4 56.9-146.9 63h-28.5l17.3-113.5zM399.2 389c-59.8-79.3-129-133-176.6-164.1-24.6-16-45.9-27.8-61.6-35.8-5.4-2.7-11.8 1.3-11.6 7.3 0.8 30.5 5.1 80.1 22.1 130.4 15.8 46.8 39.4 85.1 70.1 113.8 17.8 16.7 38.2 30.2 60.9 40.5h0.1v0.1c25.9 11.7 54.9 19.2 86.7 22.4h30.9l-21-114.6z" fill="#4BDBB7" p-id="2073"></path><path d="M671.4 423.3l70.8-57.1-12.5-15.4-99.7 80.4 7.8 17.5 84.3-13.3-3.1-19.6zM281.8 366.2l70.8 57.1-47.7-7.5-3.1 19.6 84.4 13.3 7.8-17.5-99.8-80.4z" fill="#FFFFFF" p-id="2074"></path><path d="M435 510c-21.5 0-39.1-17.9-39.1-39.9v-60.6c0-22 17.5-39.9 39.1-39.9h154c21.5 0 39.1 17.9 39.1 39.9v60.6c0 22-17.5 39.9-39.1 39.9H435z" fill="#4BDBB7" p-id="2075"></path><path d="M589 379.5c16.1 0 29.1 13.5 29.1 30v60.6c0 16.5-13.1 30-29.1 30H435c-16.1 0-29.1-13.5-29.1-30v-60.6c0-16.5 13.1-30 29.1-30h154m0-19.8H435c-27 0-49 22.4-49 49.8v60.6c0 27.5 22 49.8 49 49.8h154c27 0 49-22.4 49-49.8v-60.6c0-27.5-22-49.8-49-49.8z" fill="#19A88D" p-id="2076"></path><path d="M273.5 483.1c-16.7-9.3-32.1-20.6-46.1-33.7-32-30-56.4-69.7-72.6-117.9-27.3-81.2-21.9-157.9-21.6-161.1 0.3-3.6 2.2-6.8 5.3-8.8s6.8-2.3 10.2-0.9c1.5 0.6 38.1 15.1 88.9 48.3 46.7 30.5 114.8 83.2 173.6 161.3L393 383.9C336.2 308.5 270.4 257.5 225.2 228c-29.9-19.5-54.9-32.4-69.8-39.5-0.1 26.4 2.4 80.9 21.2 136.4 15 44.5 37.4 80.9 66.6 108.2 17 15.9 36.3 28.7 57.9 38.5h0.1v0.1c23.1 10.4 48.8 17.3 76.9 20.6l-1.7 22.6c-27.3-3.1-52.6-9.4-75.8-18.8l-27.1-13zM751.2 483.1c16.8-9.4 32.2-20.7 46.2-33.9 31.8-30 56-69.5 72.1-117.6 27.1-80.9 21.7-157.3 21.5-160.5-0.3-3.6-2.2-6.8-5.3-8.8-3-1.9-6.8-2.3-10.2-0.9-1.5 0.6-38.1 15.1-88.9 48.3-46.8 30.6-114.8 83.4-173.5 161.5l18.1 13.6c56.5-75.3 122.2-126.3 167.2-155.8 30.1-19.7 55.3-32.8 70.4-39.9 0.1 26.3-2.4 80.6-21 135.8-14.9 44.3-37.2 80.6-66.2 107.9-35.2 33.1-80.9 53.1-135.6 59.5l2.6 22.5c27.2-3.1 52.4-9.4 75.4-18.8l27.2-12.9z" fill="#19A88D" p-id="2077"></path></svg>