<?xml version="1.0" standalone="no"?><!DOCTYPE svg PUBLIC "-//W3C//DTD SVG 1.1//EN" "http://www.w3.org/Graphics/SVG/1.1/DTD/svg11.dtd"><svg t="1591160577415" class="icon" viewBox="0 0 1024 1024" version="1.1" xmlns="http://www.w3.org/2000/svg" p-id="16525" xmlns:xlink="http://www.w3.org/1999/xlink" width="200" height="200"><defs><style type="text/css"></style></defs><path d="M350.487273 219.694545L283.927273 181.061818l-67.025455 38.632727 38.632727-67.025454-38.632727-66.56L283.927273 124.276364l66.56-38.167273L311.854545 152.669091zM765.207273 989.090909H458.938182c-16.756364 0-30.254545-13.498182-30.254546-30.254545v-407.272728c0-16.756364 13.498182-30.254545 30.254546-30.254545h306.734545c16.756364 0 30.254545 13.498182 30.254546 30.254545V958.836364c0 16.756364-13.963636 30.254545-30.72 30.254545z" fill="#BBEBA1" p-id="16526"></path><path d="M700.043636 701.905455h-175.941818c-18.152727 0-33.512727-14.894545-33.512727-33.512728V422.167273c0-18.152727 14.894545-33.512727 33.512727-33.512728h175.941818c18.152727 0 33.512727 14.894545 33.512728 33.512728v246.225454c0 18.618182-14.894545 33.512727-33.512728 33.512728z" fill="#BBEBA1" p-id="16527"></path><path d="M684.218182 480.349091h-144.290909c-5.585455 0-10.24-4.654545-10.24-10.24V179.665455c0-5.585455 4.654545-10.24 10.24-10.24l148.48-77.73091c3.258182 0 5.585455 2.792727 5.585454 5.585455V470.109091c0 5.585455-4.189091 10.24-9.774545 10.24z" fill="#BBEBA1" p-id="16528"></path><path d="M708.887273 966.749091H401.221818c-29.323636 0-53.061818-23.738182-53.061818-53.061818v-408.669091c0-29.323636 23.738182-53.061818 53.061818-53.061818h307.665455c29.323636 0 53.061818 23.738182 53.061818 53.061818v408.669091c0 29.323636-23.738182 53.061818-53.061818 53.061818zM401.221818 498.501818c-3.723636 0-6.516364 2.792727-6.516363 6.516364v408.669091c0 3.723636 2.792727 6.516364 6.516363 6.516363h307.665455c3.723636 0 6.516364-2.792727 6.516363-6.516363v-408.669091c0-3.723636-2.792727-6.516364-6.516363-6.516364H401.221818z" fill="#353E43" p-id="16529"></path><path d="M433.803636 495.709091c-13.032727 0-23.272727-10.24-23.272727-23.272727V376.087273c0-30.72 25.134545-55.854545 55.854546-55.854546h177.338181c30.72 0 55.854545 25.134545 55.854546 55.854546v89.832727c0 13.032727-10.24 23.272727-23.272727 23.272727s-23.272727-10.24-23.272728-23.272727V376.087273c0-5.12-4.189091-9.309091-9.309091-9.309091H466.385455c-5.12 0-9.309091 4.189091-9.309091 9.309091v96.349091c0 13.032727-10.705455 23.272727-23.272728 23.272727z" fill="#353E43" p-id="16530"></path><path d="M472.901818 361.192727c-13.032727 0-23.272727-10.24-23.272727-23.272727V134.050909c0-15.825455 11.170909-29.323636 26.065454-32.581818L625.570909 23.272727h5.585455c15.825455 0 28.858182 13.032727 28.858181 28.858182v281.134546c0 13.032727-10.24 23.272727-23.272727 23.272727s-23.272727-10.24-23.272727-23.272727v-251.345455l-117.76 61.44v194.56c0.465455 13.032727-9.774545 23.272727-22.807273 23.272727zM620.450909 722.850909c-13.032727 0-23.272727-10.24-23.272727-23.272727V572.509091c0-13.032727 10.24-23.272727 23.272727-23.272727s23.272727 10.24 23.272727 23.272727v127.069091c0 13.032727-10.24 23.272727-23.272727 23.272727zM331.869091 201.076364L265.309091 162.443636l-67.025455 38.632728 38.632728-67.025455-38.632728-66.56L265.309091 105.658182l66.56-38.167273L293.236364 134.050909z" fill="#353E43" p-id="16531"></path></svg>