<?xml version="1.0" standalone="no"?><!DOCTYPE svg PUBLIC "-//W3C//DTD SVG 1.1//EN" "http://www.w3.org/Graphics/SVG/1.1/DTD/svg11.dtd"><svg t="1591160808158" class="icon" viewBox="0 0 1024 1024" version="1.1" xmlns="http://www.w3.org/2000/svg" p-id="21293" xmlns:xlink="http://www.w3.org/1999/xlink" width="200" height="200"><defs><style type="text/css"></style></defs><path d="M228 903h-72c-19.9 0-36-16.1-36-36v-36h144v36c0 19.9-16.1 36-36 36zM868 903h-72c-19.9 0-36-16.1-36-36v-36h144v36c0 19.9-16.1 36-36 36z" fill="#FF5722" p-id="21294"></path><path d="M738.4 312.1c-0.3-1.8-0.4-3.7-0.4-5.6 0-22-11.2-43.2-31.5-59.7-22.6-18.3-53-28.3-85.7-28.3H403.2c-32.7 0-63.2 10.1-85.7 28.3-20.3 16.5-31.5 37.7-31.5 59.7 0 1.9-0.1 3.7-0.4 5.6l-20 127.3c-2 12.7-10.5 23.1-22 27.8C150 507.5 136 605.9 136 661v97h752v-97c0-55.2-14-153.7-107.8-194-1.7-0.7-3.3-1.5-4.9-2.5-9-5.5-15.2-14.7-16.9-25.2l-20-127.2zM236 726c-19.9 0-36-16.1-36-36s16.1-36 36-36 36 16.1 36 36-16.1 36-36 36z m177-58c0 19.9-16.1 36-36 36s-36-16.1-36-36V540c0-19.9 16.1-36 36-36s36 16.1 36 36v128z m140 0c0 19.9-16.1 36-36 36s-36-16.1-36-36V540c0-19.9 16.1-36 36-36s36 16.1 36 36v128z m130 0c0 19.9-16.1 36-36 36s-36-16.1-36-36V540c0-19.9 16.1-36 36-36s36 16.1 36 36v128z m23.4-265.3c-1.2-1.9-2.6-3.7-4.2-5.4l-72-76c-13.7-14.4-36.5-15-50.9-1.4-14.4 13.7-15 36.5-1.4 50.9l36.2 38.2H317.6v-95.4c0-36.2 50.9-65.6 113.7-65.6h161.4c62.8 0 113.7 29.4 113.7 65.6v89.1zM788 654c19.9 0 36 16.1 36 36s-16.1 36-36 36-36-16.1-36-36 16.1-36 36-36z" fill="#FFEB3B" p-id="21295"></path><path d="M377 504c-19.9 0-36 16.1-36 36v128c0 19.9 16.1 36 36 36s36-16.1 36-36V540c0-19.9-16.1-36-36-36zM517 504c-19.9 0-36 16.1-36 36v128c0 19.9 16.1 36 36 36s36-16.1 36-36V540c0-19.9-16.1-36-36-36zM647 504c-19.9 0-36 16.1-36 36v128c0 19.9 16.1 36 36 36s36-16.1 36-36V540c0-19.9-16.1-36-36-36z" fill="#FF9800" p-id="21296"></path><path d="M923.7 506c-22.7-41.7-56-74.7-97-96.5l-5-31.5h11.1c17.7 0 32-14.3 32-32v-8c0-17.7-14.3-32-32-32h-22.4l-0.4-2.5c-0.9-43.1-21.5-83-58.2-112.7-35.3-28.6-81.9-44.3-131-44.3H403.2c-49.1 0-95.7 15.7-131 44.3-36.7 29.7-57.3 69.6-58.2 112.7l-0.4 2.5h24.1c4.2 0 8.3 0.8 12 2.3 11.7 4.7 20 16.2 20 29.7v8c0 17.3-13.8 31.4-31 32h-36.4l-5 31.5c-41 21.8-74.3 54.9-97 96.5C76.6 549.6 64 603.2 64 661v97c0 39.7 32.3 72 72 72h752c39.7 0 72-32.3 72-72v-97c0-57.8-12.6-111.4-36.3-155z m-680.1-38.9c11.5-4.7 20-15.1 22-27.8l20-127.3c0.3-1.8 0.4-3.7 0.4-5.6 0-22 11.2-43.2 31.5-59.7 22.6-18.3 53-28.3 85.7-28.3h217.5c32.7 0 63.2 10.1 85.7 28.3 20.3 16.5 31.5 37.7 31.5 59.7 0 1.9 0.1 3.7 0.4 5.6l20 127.3c1.6 10.5 7.8 19.7 16.9 25.2 1.6 1 3.2 1.8 4.9 2.5C874 507.3 888 605.8 888 661v97H136v-97c0-55.1 14-153.5 107.6-193.9z" fill="#FF9800" p-id="21297"></path><path d="M191.2 306c-17.7 0-32 14.3-32 32v8c0 17.7 14.3 32 32 32h11.1l11.3-72h-22.4zM238.8 378l10.9-69.7c-3.7-1.5-7.7-2.3-12-2.3h-24.1l-11.3 72h36.5zM269.8 346v-8c0-13.4-8.3-24.9-20-29.7l-11 69.7c17.2-0.6 31-14.7 31-32z" fill="#FF9800" p-id="21298"></path><path d="M236 690m-36 0a36 36 0 1 0 72 0 36 36 0 1 0-72 0Z" fill="#FF5722" p-id="21299"></path><path d="M788 690m-36 0a36 36 0 1 0 72 0 36 36 0 1 0-72 0Z" fill="#FF5722" p-id="21300"></path><path d="M592.7 248H431.3c-62.8 0-113.7 29.4-113.7 65.6V409h296.5l-36.2-38.2c-13.7-14.4-13.1-37.2 1.4-50.9 14.4-13.7 37.2-13.1 50.9 1.4l72 76c1.6 1.7 3 3.5 4.2 5.4v-89.1c0-36.2-50.9-65.6-113.7-65.6z" fill="#FF9800" p-id="21301"></path></svg>