<?xml version="1.0" standalone="no"?><!DOCTYPE svg PUBLIC "-//W3C//DTD SVG 1.1//EN" "http://www.w3.org/Graphics/SVG/1.1/DTD/svg11.dtd"><svg t="1591161014838" class="icon" viewBox="0 0 1024 1024" version="1.1" xmlns="http://www.w3.org/2000/svg" p-id="23256" xmlns:xlink="http://www.w3.org/1999/xlink" width="200" height="200"><defs><style type="text/css"></style></defs><path d="M627.2 642.56c-40.96 0-76.8 33.28-76.8 76.8 0 40.96 33.28 76.8 76.8 76.8 40.96 0 76.8-33.28 76.8-76.8-2.56-43.52-35.84-76.8-76.8-76.8z m0 99.84c-12.8 0-25.6-10.24-25.6-25.6s10.24-25.6 25.6-25.6c12.8 0 25.6 10.24 25.6 25.6s-12.8 25.6-25.6 25.6z m0 0" fill="#F4A300" p-id="23257"></path><path d="M898.56 796.16l-240.64-422.4V171.52h17.92c17.92 0 33.28-10.24 33.28-25.6s-15.36-25.6-33.28-25.6H335.36c-17.92 0-33.28 10.24-33.28 25.6s15.36 25.6 33.28 25.6h17.92v202.24L115.2 788.48c-7.68 15.36-15.36 30.72-15.36 48.64 0 51.2 35.84 92.16 81.92 92.16h652.8c40.96-5.12 74.24-43.52 74.24-92.16 0-15.36-5.12-28.16-10.24-40.96zM606.72 171.52v202.24c0 10.24 2.56 17.92 7.68 25.6l43.52 76.8H353.28l43.52-76.8c5.12-7.68 7.68-15.36 7.68-25.6V171.52h202.24z m225.28 706.56H184.32c-17.92 0-30.72-17.92-30.72-40.96 0-7.68 2.56-15.36 7.68-23.04 2.56-2.56 2.56-5.12 5.12-7.68l161.28-281.6h360.96l163.84 284.16c0 2.56 2.56 5.12 2.56 7.68 5.12 7.68 5.12 15.36 5.12 20.48-2.56 23.04-15.36 38.4-28.16 40.96z m0 0" p-id="23258"></path><path d="M453.12 576c-28.16 0-51.2 23.04-51.2 51.2s23.04 51.2 51.2 51.2 51.2-23.04 51.2-51.2-23.04-51.2-51.2-51.2z m0 0M309.76 704c-28.16 0-51.2 23.04-51.2 51.2s23.04 51.2 51.2 51.2 51.2-23.04 51.2-51.2-23.04-51.2-51.2-51.2z m0 0" fill="#F4A300" p-id="23259"></path></svg>