<?xml version="1.0" standalone="no"?><!DOCTYPE svg PUBLIC "-//W3C//DTD SVG 1.1//EN" "http://www.w3.org/Graphics/SVG/1.1/DTD/svg11.dtd"><svg t="1591159006149" class="icon" viewBox="0 0 1024 1024" version="1.1" xmlns="http://www.w3.org/2000/svg" p-id="1766" xmlns:xlink="http://www.w3.org/1999/xlink" width="200" height="200"><defs><style type="text/css"></style></defs><path d="M922.84 609.91c-1.43-6.5-4.16-12.87-7.94-18.35-0.48-0.7-1.03-1.36-1.63-1.98-6.62-32.48-15.22-64.55-25.83-95.97-11.99-35.48-28.59-69.76-35.92-106.66-0.38-1.94-1.32-3.63-2.59-5.04l-3.54-16.72c-0.77-3.62-3.38-6.43-6.62-8.03a543.154 543.154 0 0 0-18.97-54.32c-0.48-1.17-1.07-2.28-1.76-3.3-4.06-15-7.24-30.25-9.27-45.64-0.57-4.35-2.51-8.35-5.77-10.73-0.19-0.97-0.39-1.94-0.58-2.92 0.68-2.11 0.43-4.52-1.33-6.64-0.76-3.73-3.52-6.58-6.91-8.14a337.1 337.1 0 0 1-11.81-15.06c-2.26-3.07-6.04-4.52-9.58-2.51-0.23 0.13-0.45 0.28-0.66 0.44-2.46-1.83-5.35-2.47-8.17-2.18l-100.54-67.74c-3.37-2.27-6.63-1.06-8.53 1.4-4.29-4.08-9.32-7.37-14.74-9.76-2.83-2.5-5.63-5.03-8.39-7.6-0.12-0.12-0.25-0.2-0.38-0.31-0.72-1.14-1.67-2.1-2.78-2.77-3.56-4.98-12.06-6.74-16.22 0.12-37.7 62.1-71.7 126.4-101.83 192.5-2.21 3.18-4.61 6.23-7.29 9.07-3.53 3.75-3.19 8.32-0.98 11.67 0.08 0.49 0.19 0.97 0.38 1.44 4.01 10.09 8.03 20.19 12.04 30.28 0.45 1.14 1.06 2.19 1.78 3.12-2.75 4.76-0.05 10.26 4.4 12.81-0.45 0.71-0.89 1.43-1.32 2.15-1.71-1.2-3.76-1.93-5.78-1.93-0.41 0-0.81 0.03-1.2 0.08-2.89-2.63-5.89-5.12-8.96-7.52-27.06-61.71-54.12-123.41-81.18-185.12-8.37-19.08-16.74-38.17-25.11-57.25-0.24-0.66-0.53-1.3-0.88-1.9a6.73 6.73 0 0 0-0.4-0.63c-0.05-0.08-0.11-0.15-0.17-0.23-0.05-0.07-0.1-0.13-0.15-0.2-2.58-3.4-7.06-5.11-11.71-2.06l-27.83 18.32c-0.32-0.77-0.72-1.5-1.2-2.16-38.09 32.03-76.26 64.07-116.65 93.17-6.37 27.64-19.01 53.2-27.61 80.13-15.67 49.05-32.73 97.54-50.07 146.03-17.5 48.93-34.69 98.01-48.78 148.05-0.68 2.43-1.97 4.19-3.56 5.37 1.4 2.34 3.11 4.48 5.1 6.3-2.28 5.67 0.35 13.49 7.89 14.12 11.33 12.92 22.05 26.32 32.11 40.25-1.9 4.39 0.18 10.03 4.26 12.41 4.89 2.86 10.69 0.93 13.68-3.59 4.12-6.24 6.94-13.39 7.99-20.8a1812.216 1812.216 0 0 1 71.85-172.92c1.27 2.75 3.8 5.06 6.48 5.86l13.14 60.72c0.72 3.35 2.63 5.42 4.97 6.43-0.95 65.21-5.79 130.4-14.91 194.98-2.66 18.82-5.67 37.58-8.99 56.29-0.79 4.45 0.76 8.99 4.53 11.25 1.06 2.2 2.98 4.06 5.93 5.02 74.32 24.12 147.06 52.85 217.76 86.13 4.88 2.3 10.79 1.36 13.68-3.59 1.89-3.23 1.69-7.93-0.54-11.09 0.51-1.13 0.83-2.42 0.9-3.89 0.97-23.23 2.01-46.45 3.09-69.67 0.29-2.79 0.53-5.59 0.71-8.4 0.27-4.24 0.34-8.47 0.27-12.7 1.07-22.34 2.19-44.67 3.35-67 1.18 1.08 2.49 2.12 3.94 3.1 0.9 0.61 1.88 1.09 2.88 1.49-0.1 0.6-0.18 1.2-0.21 1.81-1.94 3.02-2.74 6.72-1.46 10.15a945.136 945.136 0 0 1 40.21 139.56c1.18 5.72 6.99 9.42 12.63 9.49 2.51 0.59 5.22 0.43 7.83-0.38 5.04 0.58 10.57-1.71 13.43-6.03 30.56-14.11 61.11-28.21 91.67-42.32 16.86-7.78 33.72-15.56 50.58-23.35l25.29-11.67c8.45-3.9 19.85-9.13 18.41-20.61-0.4-3.21-1.58-6.21-3.47-8.52-4.63-44.73-9.27-89.45-13.9-134.18-2.35-22.65-4.99-45.34-5.31-68.13-0.3-21.4 1.39-42.83 5.06-63.91 4.27-24.52 10.9-48.56 19.3-71.97 20 47.66 38.62 95.9 55.81 144.66 7.66 21.73 15.03 43.56 22.14 65.47 2.16 6.68 9 11 15.99 9.08 5.55-1.53 9.75-7.13 9.6-12.88 1.14-0.57 2.25-1.34 3.32-2.35l34.77-32.9c1.24 0.04 2.48-0.11 3.67-0.5 7-2.27 10.66-8.87 9.09-16zM521.47 422.73c0.09-1.21 0.17-2.43 0.26-3.64 0.53 0.32 1.08 0.6 1.64 0.86-0.64 0.93-1.27 1.85-1.9 2.78z m68.55-144.9c-0.14 0.08-0.27 0.18-0.41 0.28 0.13-0.9 0.27-1.8 0.4-2.69l0.06-0.03c-0.02 0.81-0.03 1.63-0.05 2.44z m18.58-51.87c-0.75-0.63-1.49-1.27-2.21-1.94 1.12-0.36 2.14-0.97 2.96-1.84-0.26 1.25-0.52 2.51-0.75 3.78z m15.57 385.69c-0.57 0.09-1.14 0.21-1.7 0.36 0.67-1.98 1.36-3.96 2.05-5.93 0.05 0.06 0.11 0.12 0.16 0.18-0.01 0.64 0 1.27 0.06 1.9-0.2 1.17-0.38 2.33-0.57 3.49z m61.54 211.43c1.69-0.81 3.39-1.61 5.09-2.4 1.27-0.58 2.54-1.15 3.81-1.72-2.97 1.38-5.94 2.75-8.9 4.12z" fill="#F7CCB0" p-id="1767"></path><path d="M584.69 105.83c-0.11 0.22-0.21 0.43-0.32 0.65-0.82-0.43-1.82-0.66-3-0.6-52.9 2.85-105.94 1.65-158.65-3.59-1.95-0.19-3.4 0.44-4.36 1.5-3.82-4.8-12.5 0.9-9.56 7.38 1.04 2.29 2.07 4.58 3.1 6.87v0.04c-0.97 2.7-0.77 5.87 1.3 9.1 2.28 3.55 4.6 7.13 6.83 10.75 1.81 3.68 3.67 7.34 5.54 11 3.62 8.32 7.22 16.65 10.75 25 2.02 5.48 4.18 10.91 6.78 16.18 16.11 38.76 31.29 77.9 45.53 117.39 2.6 7.21 14.2 4.1 11.57-3.19-0.2-0.56-0.41-1.11-0.61-1.67 1.41-0.29 2.71-1.21 3.57-2.96 30.67-62.57 61.25-125.19 91.86-187.79 3.41-6.91-6.94-13-10.33-6.06z" fill="#EFBB9E" p-id="1768"></path><path d="M625.48 604.55c-1.38 3.72-2.75 7.45-4.13 11.17 0.96 0.27 1.93 0.53 2.89 0.8 0.59-3.2 1.18-6.41 1.76-9.61-0.98-0.13-1.96-0.27-2.95-0.4-0.08 1.88-0.17 3.75-0.25 5.62h3c-0.04-2.41-0.07-4.82-0.11-7.22-0.02-1.28-1.64-2-2.56-1.06-1.31 1.33-2.17 2.84-2.63 4.64-0.48 1.9 2.22 2.58 2.89 0.8 0.59-1.57 0.83-3.11 0.77-4.79-0.05-1.43-2.05-2.11-2.8-0.76-0.81 1.48-1.16 2.87-1.08 4.56 0.09 1.92 3.09 1.93 3 0-0.06-1.15 0.1-2 0.67-3.04-0.93-0.25-1.86-0.5-2.8-0.76 0.05 1.42-0.16 2.67-0.66 3.99 0.96 0.27 1.93 0.53 2.89 0.8 0.34-1.33 0.9-2.35 1.86-3.32-0.85-0.35-1.71-0.71-2.56-1.06 0.04 2.41 0.07 4.82 0.11 7.22 0.03 1.94 2.91 1.92 3 0 0.08-1.88 0.17-3.75 0.25-5.62 0.07-1.66-2.64-2.08-2.95-0.4-0.59 3.2-1.18 6.41-1.76 9.61-0.35 1.9 2.22 2.62 2.89 0.8 1.38-3.73 2.75-7.45 4.13-11.18 0.69-1.81-2.21-2.59-2.87-0.79z" fill="#F7CCB0" p-id="1769"></path><path d="M623.53 609.08a24 24 0 0 1 2.92 3.95c1.02 1.7 3.35 0.21 2.59-1.51-1.45-3.3-3.89-5.87-7.1-7.52-0.82-0.43-1.97-0.09-2.2 0.9-0.95 4.1 0.39 8.31 3.74 10.92 1.03 0.8 2.47 0.32 2.56-1.06 0.18-2.84-0.38-5.44-1.61-8-0.78-1.63-3.03-0.41-2.74 1.16 0.57 3.12 1.76 5.98 3.57 8.58 1.11 1.59 3.43 0.23 2.59-1.51-1.1-2.3-2.52-4.33-4.25-6.19-0.72-0.77-2.32-0.45-2.51 0.66-0.46 2.71-0.17 5.09 0.92 7.61 0.72 1.66 3.02 0.39 2.74-1.16-0.42-2.34-0.84-4.68-1.26-7.01-0.91 0.39-1.83 0.77-2.74 1.16 1.56 2.91 4.23 6.24 7.97 4.79 3.12-1.21 3.06-5.15 0.4-6.85-3-1.92-6.32 0.33-6.9 3.55-0.66 3.64 2.06 6.83 5.52 7.56 1.88 0.4 2.69-2.5 0.8-2.89-1.22-0.26-2.34-0.83-2.97-1.95-0.67-1.17-0.71-3.87 1.2-3.83 2.09 0.04 0.88 2.38-0.9 1.45-1.21-0.63-1.91-2.18-2.52-3.33-0.85-1.59-3.03-0.43-2.74 1.16 0.42 2.34 0.84 4.68 1.26 7.01 0.91-0.39 1.83-0.77 2.74-1.16-0.74-1.71-0.93-3.47-0.62-5.3l-2.51 0.66c1.57 1.68 2.79 3.52 3.78 5.59 0.86-0.5 1.73-1.01 2.59-1.51-1.68-2.41-2.74-4.98-3.27-7.86-0.91 0.39-1.83 0.77-2.74 1.16 1 2.09 1.35 4.18 1.2 6.48 0.85-0.35 1.71-0.71 2.56-1.06-2.51-1.95-3.7-4.86-2.97-8-0.73 0.3-1.47 0.6-2.2 0.9 2.79 1.44 4.76 3.57 6.02 6.44 0.86-0.5 1.73-1.01 2.59-1.51-0.98-1.65-2.1-3.14-3.39-4.55-1.31-1.48-3.42 0.64-2.12 2.07z" fill="#F7CCB0" p-id="1770"></path><path d="M626.01 603.32c-2.72 0.04-5.26 0.96-7.1 3.02-2.4 2.68-2.69 5.92-1.17 9.09-0.03-0.06-0.38 4.43-0.11 1.12h15c0.2-5.5-1.05-10.47-3.21-15.48-2.58-6-12.36-4.1-13.71 1.79-1.3 5.67-1.84 11.45-1.36 17.25 0.34 4.04 3.21 7.5 7.5 7.5 3.8 0 7.84-3.44 7.5-7.5-0.37-4.5-0.19-8.86 0.82-13.26-4.57 0.6-9.14 1.19-13.71 1.79 1.08 2.51 1.26 5.22 1.16 7.91-0.15 4.05 3.55 7.5 7.5 7.5 4.33 0 7.18-3.45 7.5-7.5 0.25-3.17-0.58-5.87-1.93-8.69l-1.17 9.09-0.42 0.36c-1.26 0.34-2.52 0.68-3.79 1.02 0.23 0 0.46-0.01 0.7-0.01 9.64-0.16 9.67-15.16 0-15z" fill="#F7CCB0" p-id="1771"></path><path d="M693.45 682.32c-1.57-5.7-8.25-10.07-14.15-8.03-32.66 11.31-64.68 24.4-95.95 39.12-0.65-0.1-1.33-0.17-2.05-0.17-13.32 0-14.66 18.63-3.99 22.35 3.51 2.21 8.07 2.22 12.07 0.31a921.585 921.585 0 0 1 96.04-39.43c5.86-2.04 9.75-7.89 8.03-14.15zM432.38 717.47a624.36 624.36 0 0 1-105.05-32.95c-5.74-2.38-12.65 2.57-14.15 8.03-1.82 6.61 2.27 11.76 8.03 14.15a623.786 623.786 0 0 0 105.05 32.95c6.06 1.33 12.44-1.82 14.15-8.03 1.58-5.76-1.93-12.82-8.03-14.15zM497.89 456.74c-0.55-1.95-1.53-3.64-2.96-5.07l-1.69-1.69a8.717 8.717 0 0 0-3.7-2.38 8.662 8.662 0 0 0-4.43-0.99c-1.58-0.06-3.06 0.27-4.43 0.99-1.43 0.46-2.66 1.26-3.7 2.38-0.6 0.78-1.2 1.55-1.8 2.33a11.475 11.475 0 0 0-1.57 5.8c0.14 1.02 0.27 2.04 0.41 3.06 0.55 1.95 1.53 3.64 2.96 5.07l1.69 1.69a8.717 8.717 0 0 0 3.7 2.38c1.37 0.72 2.85 1.05 4.43 0.99 1.58 0.06 3.06-0.27 4.43-0.99 1.43-0.46 2.66-1.26 3.7-2.38 0.6-0.78 1.2-1.55 1.8-2.33 1.04-1.79 1.56-3.73 1.57-5.8-0.14-1.02-0.28-2.04-0.41-3.06zM486.8 520.86c-14.8 0-14.82 23 0 23 14.8 0 14.82-23 0-23zM496.77 602.2c-0.39-0.92-0.77-1.83-1.16-2.75a0.467 0.467 0 0 0-0.05-0.1l-0.06-0.09c-0.6-0.78-1.2-1.55-1.8-2.33-0.4-0.41-1.95-1.58-2.43-1.89-0.86-0.55-1.85-0.93-2.84-1.2-2.49-0.69-3.88-0.44-6.37-0.01-1.5 0.36-2.8 1.04-3.91 2.06a8.684 8.684 0 0 0-2.96 3.23c-0.84 1.32-1.3 2.75-1.36 4.28-0.21 0.92-0.24 1.84-0.15 2.76 0 0.05-0.01 0.09 0 0.14 0.14 1.02 0.27 2.04 0.41 3.06 0.55 1.95 1.53 3.64 2.96 5.07 0.78 0.6 1.55 1.2 2.33 1.8 1.79 1.04 3.73 1.56 5.8 1.57 1.12 0.12 2.27-0.14 3.35-0.45 1.82-0.51 3.82-1.6 5.13-2.99 0.38-0.41 0.45-0.56 0.99-1.26 1.09-1.41 1.69-2.12 2.17-4.14l0.03-0.11c0.14-1.02 0.27-2.04 0.41-3.06 0-0.08 0.01-0.16 0.01-0.24 0-1.12-0.2-2.26-0.5-3.35zM160.13 532.74c-0.03-0.04-0.07-0.08-0.1-0.11-0.16-0.55-0.51-1.05-1.09-1.37-4.34-5.07-8.68-10.15-13.02-15.22-0.5-0.58-1.08-0.82-1.64-0.82-0.63-0.89-2.32-0.97-2.73 0.4-1.34 4.49-2.69 8.98-4.03 13.47-0.1 0.34-0.09 0.64 0.01 0.89-4.52 13.34-9.04 26.67-13.56 40.01-0.56 1.65 0.59 2.78 1.93 3 4.07 5.12 8.4 10.02 12.99 14.68 0.09 1.31 2.05 1.78 2.77 0.6 0.35-0.16 0.64-0.45 0.79-0.91l0.34-1.06c0.6-0.24 1.08-0.75 1.26-1.61 0.23-1.11 0.48-2.22 0.73-3.33 0.26-0.28 0.46-0.65 0.55-1.14 0.06-0.34 0.14-0.67 0.2-1.01 4.46-10.71 8.51-21.57 12.16-32.58 0.26-0.11 0.49-0.33 0.65-0.67 1.18-2.49 1.94-5.09 2.24-7.77 0.54-0.17 0.98-0.61 0.95-1.35-0.07-1.46-0.51-2.9-1.4-4.1zM898.17 531.94c-0.08-0.16-0.2-0.3-0.33-0.43 0.05-0.15 0.09-0.31 0.11-0.48l0.01-0.17c0.03-0.34-0.13-0.7-0.38-0.98 1.04-0.52 0.81-1.72 0.06-2.32 0.24-0.9-0.26-1.94-1.18-1.94-0.32-0.41-0.84-0.64-1.49-0.46l-0.1 0.03c0.78-0.78 0.17-2.14-0.85-2.41 0.12-0.79-0.43-1.76-1.38-1.88l0.03-0.03c0.28-0.24 0.41-0.59 0.43-0.96 0.47-0.98-0.21-2.4-1.47-2.18-0.01-0.04-0.03-0.07-0.05-0.11 0.27-0.1 0.54-0.2 0.81-0.29 1.48-0.5 1.24-2.52 0.1-2.91-0.06-0.67-0.52-1.3-1.23-1.38-0.01-0.03-0.02-0.05-0.03-0.08 0.74-0.5 0.62-1.64-0.03-2.26 0.9-0.42 1.35-1.17 0.31-2.52-0.44-0.57-1.01-0.63-1.49-0.4-0.27-0.3-0.65-0.51-1.11-0.51 0.01-0.45-0.15-0.88-0.47-1.15 0.02-0.11 0.03-0.22 0.03-0.33 0.41-0.49 0.36-1.24 0-1.79 1.23-0.86 0.62-3.06-0.84-2.79-0.13-0.51-0.51-0.97-1.02-1.15 0-0.69-0.39-1.37-1.06-1.5 0.26-0.13 0.51-0.27 0.77-0.4 1.72-0.87 0.21-3.46-1.51-2.59-1.82 0.92-3.61 1.91-5.36 2.93 1.71-1.08 3.43-2.13 5.19-3.14 1.3-0.75 0.68-2.47-0.45-2.75 0.29-1.08-0.9-2.45-2.21-1.76-0.11 0.06-0.21 0.12-0.32 0.17-0.03-0.03-0.05-0.07-0.08-0.09l1.26-0.66c1.27-0.64 0.78-2.2-0.25-2.64 0.11-0.06 0.22-0.12 0.34-0.18 1.71-0.9 0.19-3.49-1.51-2.59a94.944 94.944 0 0 0-20.7 14.75c-0.29 0.27-0.42 0.57-0.45 0.87-0.22 0.31-0.32 0.72-0.18 1.2 3.53 12.46 7.93 24.61 13.17 36.44 1.23 3.41 2.57 6.78 4.13 10.07 0.21 0.45 0.54 0.67 0.89 0.74 0.41 0.5 1.1 0.74 1.81 0.27 2.08-1.36 4.05-2.88 5.9-4.53 4.3-3.43 8.6-6.86 12.9-10.3 1.05-0.86 0.33-2.14-0.72-2.43zM761.07 458.95s-74.4 72.74-11.64 200.39c-0.01 0-15.48-107.22 11.64-200.39zM255.61 484.55s86.96 91.5 14.48 174.79c0 0 13.34-95.62-14.48-174.79z" fill="#EFBB9E" p-id="1772"></path><path d="M403.77 111.62l90.87 217.8c8.56 20.52 17.13 41.05 25.69 61.57 1.47 3.51 7.27 1.97 5.79-1.6l-90.87-217.8c-8.56-20.52-17.13-41.05-25.69-61.57-1.47-3.5-7.28-1.96-5.79 1.6z" fill="#4994A5" p-id="1773"></path><path d="M597.72 102.45c-35.25 70.29-70.5 140.59-105.75 210.88-1.73 3.44 3.45 6.48 5.18 3.03 35.25-70.29 70.5-140.59 105.75-210.88 1.73-3.45-3.44-6.49-5.18-3.03zM402.32 100.68c-47.3 28.21-94.15 56.84-137.41 91.06-13.58 10.75-26.86 21.88-39.96 33.21-2.93 2.53 1.33 6.76 4.24 4.24 41.4-35.78 85.01-67.8 131.61-96.47 14.77-9.09 29.66-17.98 44.55-26.86 3.31-1.98 0.29-7.17-3.03-5.18zM607.48 107.92c63.58 39.56 126.73 79.81 190.31 119.37 3.29 2.05 6.3-3.14 3.03-5.18-63.58-39.56-126.73-79.81-190.31-119.37-3.29-2.05-6.31 3.14-3.03 5.18z" fill="#4994A5" p-id="1774"></path><path d="M224.17 226.27c-16.55 47.81-33.53 95.48-50.24 143.24-18.42 52.66-36.66 105.4-53.85 158.48-8.22 25.4-16.22 50.88-23.52 76.57-1.06 3.72 4.73 5.31 5.79 1.6 13.84-48.64 29.87-96.66 46.12-144.54 17.94-52.84 36.47-105.48 55-158.12 8.87-25.2 17.75-50.39 26.49-75.63 1.26-3.67-4.53-5.24-5.79-1.6zM796.41 225.5c15.52 49.41 31.48 98.68 47.44 147.95 17.5 54.01 35.07 107.99 52.46 162.03 8.49 26.4 16.94 52.81 25.25 79.26 1.15 3.67 6.95 2.1 5.79-1.6-15.52-49.41-31.48-98.68-47.44-147.95-17.5-54.01-35.07-107.99-52.46-162.03-8.49-26.4-16.94-52.81-25.25-79.26-1.16-3.67-6.95-2.1-5.79 1.6zM520.53 389.05c-6.91 66.56-10.11 133.5-13.34 200.31-3.59 74.18-6.6 148.39-11.1 222.52-2.25 37.15-4.85 74.29-8.57 111.33-0.38 3.84 5.62 3.81 6 0 6.92-69.07 10.36-138.48 13.72-207.79 3.56-73.48 6.52-147 10.99-220.44 2.15-35.35 4.63-70.7 8.29-105.93 0.41-3.84-5.6-3.81-5.99 0z" fill="#4994A5" p-id="1775"></path><path d="M267.88 834.79c57.56 19.72 114.41 41.01 169.7 66.46 17.26 7.95 34.38 16.18 51.43 24.56 3.45 1.7 6.5-3.48 3.03-5.18-55.04-27.04-111.01-51.66-168.64-72.65-17.91-6.52-35.9-12.8-53.93-18.97-3.66-1.26-5.23 4.53-1.59 5.78zM284.8 393.84a9393.728 9393.728 0 0 1-119.02 295.84c-1.48 3.52 3.68 6.58 5.18 3.03 32.33-76.6 63.68-153.61 93.98-231.03 8.63-22.05 17.18-44.14 25.64-66.25 1.38-3.61-4.42-5.17-5.78-1.59zM272.61 576.05c-0.16 80.81-19.84 160.15-20 240.96-0.01 3.86 5.99 3.87 6 0 0.16-80.81 19.84-160.15 20-240.96 0.01-3.87-5.99-3.87-6 0z" fill="#4994A5" p-id="1776"></path><path d="M252.72 485.35c9.15 29.88 15.91 59.68 19.89 90.7 0.49 3.78 6.49 3.83 6 0-4.06-31.56-10.8-61.89-20.11-92.29-1.13-3.69-6.92-2.12-5.78 1.59zM501.91 747.28c8.55 58.09 18.67 115.93 27.22 174.01 0.56 3.81 6.34 2.19 5.79-1.6-8.55-58.09-18.67-115.93-27.22-174.01-0.57-3.8-6.35-2.18-5.79 1.6z" fill="#4994A5" p-id="1777"></path><path d="M535.15 922.72c61.46-28.19 123.4-55.32 184.95-83.32 15.45-7.03 30.86-14.13 46.22-21.35 3.49-1.64 0.45-6.81-3.03-5.18-56.9 26.73-114.51 51.9-171.83 77.72-19.81 8.92-39.59 17.9-59.34 26.96-3.5 1.59-0.46 6.77 3.03 5.17z" fill="#4994A5" p-id="1778"></path><path d="M742.2 576.05c1.05 63.38 13 125.82 17.87 188.9 1.3 16.8 2.03 33.65 1.73 50.51-0.07 3.86 5.93 3.86 6 0 1.09-62.12-10.85-123.64-16.5-185.31-1.65-17.99-2.81-36.03-3.1-54.1-0.07-3.86-6.07-3.87-6 0z" fill="#4994A5" p-id="1779"></path><path d="M759.66 462.94c-7.46 37.47-17.86 74.6-17.47 113.11 0.04 3.86 6.04 3.87 6 0-0.39-37.98 9.9-74.57 17.25-111.51 0.76-3.78-5.02-5.39-5.78-1.6z" fill="#4994A5" p-id="1780"></path><path d="M729.5 370.78c29.84 83.52 58.33 167.53 84.37 252.32 7.03 22.9 13.89 45.84 20.59 68.84 1.08 3.7 6.87 2.13 5.79-1.6-23.99-82.3-50.2-163.91-78.17-244.94-8.79-25.46-17.73-50.86-26.79-76.22-1.29-3.61-7.09-2.05-5.79 1.6zM350.88 138.23l15.51 87.99c0.67 3.8 6.45 2.19 5.79-1.6l-15.51-87.99c-0.68-3.79-6.46-2.18-5.79 1.6z" fill="#4994A5" p-id="1781"></path><path d="M370.94 227.59c11.22-4.58 22.43-9.17 33.65-13.75 3.53-1.44 1.98-7.25-1.6-5.79-11.22 4.58-22.43 9.17-33.65 13.75-3.52 1.45-1.98 7.25 1.6 5.79z" fill="#4994A5" p-id="1782"></path><path d="M398.61 211.78c-1.29 25.87-2.57 51.73-3.86 77.6-0.19 3.86 5.81 3.85 6 0 1.29-25.87 2.57-51.73 3.86-77.6 0.2-3.86-5.81-3.85-6 0z" fill="#4994A5" p-id="1783"></path><path d="M393.01 290.29c39.46 33.76 80.63 65.08 124.42 93.03 3.26 2.08 6.28-3.11 3.03-5.18-43.36-27.68-84.13-58.67-123.2-92.1-2.92-2.49-7.19 1.74-4.25 4.25zM652.35 133.3c-12.94 31.82-22.66 64.78-35.13 96.76-1.4 3.6 4.4 5.16 5.79 1.6 12.48-31.98 22.19-64.95 35.13-96.76 1.45-3.58-4.35-5.14-5.79-1.6z" fill="#4994A5" p-id="1784"></path><path d="M581.62 207.34c12.64 8.24 24.34 17.87 36.98 26.11 3.24 2.11 6.25-3.08 3.03-5.18-12.64-8.24-24.34-17.87-36.98-26.11-3.25-2.11-6.26 3.08-3.03 5.18z" fill="#4994A5" p-id="1785"></path><path d="M583.51 208.38c0.61 28.31 0.65 56.62 0.65 84.93 0 3.86 6 3.87 6 0 0-28.31-0.05-56.62-0.65-84.93-0.08-3.85-6.08-3.86-6 0z" fill="#4994A5" p-id="1786"></path><path d="M521.07 369.21c26.09-24.8 50.5-50.77 72.98-78.92 2.39-2.99-1.83-7.26-4.24-4.24-22.47 28.14-46.88 54.11-72.98 78.92-2.81 2.66 1.44 6.9 4.24 4.24zM406.36 106.73h193.5c3.86 0 3.87-6 0-6h-193.5c-3.86 0-3.87 6 0 6zM572.88 722.01c36.65-16.46 74-31.28 111.95-44.45 3.63-1.26 2.07-7.06-1.6-5.79a1385.975 1385.975 0 0 0-113.39 45.05c-3.5 1.59-0.45 6.76 3.04 5.19zM320.91 687.96c39.83 13.26 79.66 26.51 119.49 39.77 3.67 1.22 5.25-4.57 1.6-5.79-39.83-13.26-79.66-26.51-119.49-39.77-3.68-1.22-5.25 4.57-1.6 5.79zM96.86 606.86a512.51 512.51 0 0 0 69.72 88.77c2.71 2.76 6.95-1.48 4.24-4.24a505.554 505.554 0 0 1-68.78-87.55c-2.03-3.28-7.22-0.27-5.18 3.02zM839.48 693.26c30.52-24 59.6-49.77 87.09-77.19 2.74-2.73-1.5-6.97-4.24-4.24a988.853 988.853 0 0 1-87.09 77.19c-3.04 2.38 1.23 6.6 4.24 4.24z" fill="#4994A5" p-id="1787"></path></svg>