<?xml version="1.0" standalone="no"?><!DOCTYPE svg PUBLIC "-//W3C//DTD SVG 1.1//EN" "http://www.w3.org/Graphics/SVG/1.1/DTD/svg11.dtd"><svg t="1591160948909" class="icon" viewBox="0 0 1024 1024" version="1.1" xmlns="http://www.w3.org/2000/svg" p-id="22187" xmlns:xlink="http://www.w3.org/1999/xlink" width="200" height="200"><defs><style type="text/css"></style></defs><path d="M928.995556 265.272889c20.821333 0 37.859556 17.066667 37.859555 37.888 0 20.849778-17.038222 37.888-37.888 37.888h-79.559111c-17.066667 87.153778-94.72 151.552-185.656889 151.552h-234.894222l-68.209778 274.716444c-3.783111 17.038222-18.944 28.416-35.982222 28.416h-7.594667l-75.776-13.283555-28.416 153.457778c-3.783111 18.944-18.944 30.321778-37.888 30.321777h-7.566222a36.977778 36.977778 0 0 1-30.321778-43.576889l28.416-153.457777-77.653333-13.255111c-20.849778-3.783111-34.133333-22.755556-30.321778-41.671112L133.319111 145.92c3.783111-18.972444 18.944-32.227556 37.888-32.227556h492.544c90.936889 0 168.618667 64.426667 185.656889 151.552h79.559111z m-227.356445 143.985778a113.493333 113.493333 0 0 0 75.776-107.975111c0-49.265778-32.199111-90.936889-75.776-108.003556v215.978667z m-75.776 7.566222V189.496889H205.312L137.102222 685.852444l157.240889 28.416 66.275556-269.027555c3.811556-17.066667 18.972444-28.416 36.010666-28.416h229.262223z" fill="#333333" p-id="22188"></path><path d="M455.367111 303.160889h75.776c20.849778 0 37.888-17.066667 37.888-37.888 0-20.821333-17.066667-37.888-37.888-37.888H455.395556c-20.849778 0-37.888 17.066667-37.888 37.888 0 20.849778 17.066667 37.888 37.888 37.888" fill="#26A51C" p-id="22189"></path></svg>