<?xml version="1.0" standalone="no"?><!DOCTYPE svg PUBLIC "-//W3C//DTD SVG 1.1//EN" "http://www.w3.org/Graphics/SVG/1.1/DTD/svg11.dtd"><svg t="1591160981908" class="icon" viewBox="0 0 1024 1024" version="1.1" xmlns="http://www.w3.org/2000/svg" p-id="22585" xmlns:xlink="http://www.w3.org/1999/xlink" width="200" height="200"><defs><style type="text/css"></style></defs><path d="M987.603557 171.728176c-8.218172-15.623839-27.65485-21.748327-43.185568-13.437034-2.356674 1.233084-4.491291 2.720971-6.396687 4.40738-1.506307 1.056052-2.946099 2.24718-4.290723 3.592828l-164.085102 163.991981-75.996858-75.996858 164.086126-163.991981c2.337231-2.337231 4.236488-4.945639 5.698792-7.723915 0.693802-1.022283 1.341554-2.089591 1.924839-3.213181 8.156774-15.687284 2.094708-34.998095-13.560854-43.185568-45.310975-23.624047-96.432283-36.123732-147.805324-36.123732-176.428222 0-319.984778 143.555533-319.984778 319.984778 0 30.849612 4.403287 60.688197 12.589736 88.935542l-167.164231 167.138648c-1.809205-0.052189-3.613294-0.085958-5.41636-0.085958-123.494639 0-223.99047 100.494809-223.99047 223.989447 0 123.493615 100.495832 223.989447 223.99047 223.989447s223.988424-100.495832 223.988424-223.989447c0-1.799996-0.032746-3.603061-0.084934-5.41022L615.101681 627.443265c28.235065 8.17724 58.056254 12.57541 88.889493 12.57541 176.428222 0 319.984778-143.555533 319.984778-319.984778C1023.976976 268.411169 1011.383146 217.163995 987.603557 171.728176zM398.323473 753.696738l-20.379143 5.439896c4.124947 15.498996 6.062066 28.499078 6.062066 40.872896 0 88.24481-71.777767 159.992901-159.991878 159.992901s-159.992901-71.747067-159.992901-159.992901 71.77879-159.992901 159.992901-159.992901c12.343119 0 25.343201 1.938142 40.904619 6.062066l5.420453-20.386306 152.686495-152.660912c29.490661 53.936423 74.059739 98.500385 128.001279 127.984906L398.323473 753.696738zM703.992197 576.022129c-141.14974 0-255.988232-114.806769-255.988232-255.988232s114.839515-255.988232 255.988232-255.988232c26.318412 0 52.531424 4.102435 77.481675 11.999288l-155.696038 155.618267c-5.999644 5.999644-9.374508 14.124695-9.374508 22.623253 0 8.499581 3.374864 16.624632 9.374508 22.624277l121.243365 121.244388c6.249331 6.249331 14.436804 9.374508 22.624277 9.374508 8.18645 0 16.373922-3.125177 22.623253-9.374508L947.983187 242.518452c7.895831 24.944112 11.997242 51.16531 11.997242 77.515445C959.980429 461.214337 845.140914 576.022129 703.992197 576.022129z" p-id="22586"></path><path d="M224.015541 704.015222c-53.060473 0-95.996354 42.935881-95.996354 95.996354s42.935881 95.996354 95.996354 95.996354 95.995331-42.935881 95.995331-95.996354S277.074991 704.015222 224.015541 704.015222zM224.015541 832.009338c-17.656125 0-31.998785-14.343683-31.998785-31.998785s14.34266-31.998785 31.998785-31.998785c17.655102 0 31.998785 14.343683 31.998785 31.998785S241.670643 832.009338 224.015541 832.009338z" p-id="22587"></path></svg>