<?xml version="1.0" standalone="no"?><!DOCTYPE svg PUBLIC "-//W3C//DTD SVG 1.1//EN" "http://www.w3.org/Graphics/SVG/1.1/DTD/svg11.dtd"><svg t="1591168303908" class="icon" viewBox="0 0 1024 1024" version="1.1" xmlns="http://www.w3.org/2000/svg" p-id="2445" xmlns:xlink="http://www.w3.org/1999/xlink" width="200" height="200"><defs><style type="text/css"></style></defs><path d="M721.92 936.448h-3.584c-17.92-3.072-26.624-20.48-28.672-25.6-0.512-0.512-0.512-1.536-1.024-2.048-6.656-11.264-56.32-99.328-92.16-161.28-18.944-32.768-62.464-40.448-91.648-16.384-15.36 12.8-23.04 31.744-21.504 51.712l6.144 69.632v2.048c0 5.632-1.024 25.6-15.872 40.448l-24.064 24.064c-6.144 6.144-17.92 17.92-31.744 17.408-4.096 0-7.68-1.536-11.264-3.584-1.536-1.024-3.072-2.048-4.608-3.584-12.8-12.8-16.384-21.504-17.408-24.576L325.632 783.36c-2.56-5.12-6.656-9.216-11.776-11.776l-118.784-56.32c-1.024-0.512-1.536-0.512-2.56-1.024-5.632-2.048-23.552-9.728-28.16-25.6-6.144-16.896 9.216-31.744 15.872-37.888l24.576-24.576c14.848-14.848 34.304-15.872 39.424-15.872h2.048l69.12 5.12c18.944 1.536 37.376-6.144 50.176-20.992 25.088-28.672 17.408-73.216-15.872-92.16L186.368 408.064c-0.512-0.512-1.536-1.024-2.048-1.024-4.608-2.048-20.48-10.752-23.552-26.624-2.048-17.92 9.216-29.184 14.336-33.792L230.4 291.328c17.92-17.92 41.472-17.92 52.224-15.36L537.6 341.504c27.648 7.168 56.832-1.024 77.312-20.992L689.664 245.76c17.92-17.92 65.536-59.904 119.296-59.904 26.624 0 50.688 10.24 71.168 30.72s30.72 44.032 30.72 71.168c0 56.32-45.568 105.984-59.392 119.808l-74.752 74.752c-19.968 19.968-28.16 49.664-20.992 77.312l65.536 254.976c2.56 11.264 2.56 34.304-15.36 52.224l-54.272 54.272c-5.12 5.12-14.848 15.36-29.696 15.36z" fill="#BCE6FA" p-id="2446"></path><path d="M733.184 978.944c-2.048 0-4.608 0-6.656-0.512h-1.024c-31.232-5.632-46.08-33.792-49.664-42.496 0 0 0-0.512-0.512-0.512l-109.568-192c-7.68-13.312-20.48-22.528-35.84-25.088-14.848-2.56-30.208 1.536-41.984 11.264-12.8 10.752-19.456 27.136-17.92 44.032l7.168 82.432v4.096c0 8.704-1.536 39.424-25.088 62.976l-28.672 28.672c-8.192 8.192-27.136 27.648-53.248 26.624-8.192 0-16.384-3.072-24.064-7.68-3.584-2.048-6.656-4.608-9.216-7.68-15.36-15.872-22.016-27.648-25.088-35.328l-69.632-143.36c-1.024-2.048-2.56-3.072-4.096-4.096L97.28 713.216s-0.512 0-0.512-0.512c-6.144-2.048-37.376-13.824-46.592-43.52-10.752-31.744 14.848-57.856 23.552-66.048l29.184-29.184c22.016-22.016 50.176-25.088 60.928-25.088h4.096l82.432 5.632c15.872 1.024 32.256-5.632 42.496-17.92 10.24-11.776 14.336-27.136 11.776-42.496-2.56-15.36-11.776-28.16-25.088-35.84L86.528 347.648s-0.512-0.512-1.024-0.512c-5.632-2.56-34.304-16.384-39.424-47.104v-1.536c-3.584-31.744 16.384-50.688 23.04-57.344l65.536-65.536c25.6-25.6 59.904-28.672 81.408-23.552L519.68 230.4c25.6 6.656 53.248-1.024 72.192-19.968l88.576-88.576c23.04-23.04 84.992-77.312 156.672-77.312 37.888 0 71.168 14.336 99.328 42.496 28.16 28.16 42.496 61.44 42.496 98.816 0 74.752-58.88 139.264-76.8 157.184l-88.576 88.576c-18.944 18.944-26.624 46.592-19.968 72.192l77.824 303.616c5.12 21.504 2.048 55.808-23.552 81.92L783.36 954.368c-6.656 7.168-23.552 24.576-50.176 24.576z m-1.536-40.96c9.216 0.512 15.872-5.632 22.528-12.288l64.512-64.512c14.848-14.848 14.848-34.816 12.8-43.008l-77.824-303.104c-10.24-39.936 1.536-82.432 30.72-111.616l88.576-88.576c15.36-15.36 64.512-69.12 64.512-128 0-26.112-10.24-49.664-30.208-70.144-20.48-20.48-44.032-30.72-70.656-30.72-56.32 0-108.032 45.568-127.488 65.024l-88.576 88.576c-29.184 29.184-71.68 40.448-111.616 30.72L205.824 192c-8.192-2.048-27.648-2.048-42.496 12.8L97.28 270.848c-6.144 6.144-11.776 12.288-11.264 22.528 2.048 8.192 11.776 14.336 15.872 15.872 1.536 0.512 3.072 1.536 4.608 2.56l194.048 111.104c24.064 13.824 40.448 37.376 45.056 64.512 4.608 27.136-3.072 55.296-20.992 76.288-18.944 22.016-47.616 33.792-76.8 31.744l-82.432-5.632h-0.512c-4.608 0-20.992 1.536-32.768 13.312l-29.184 29.184c-4.608 4.608-16.384 16.384-13.824 24.064 0 0.512 0 0.512 0.512 1.024 2.56 9.216 15.872 15.36 20.48 16.896 1.536 0.512 3.584 1.536 5.12 2.048L256 743.424c10.24 4.608 18.432 13.312 23.552 23.04l70.144 144.384c0.512 0.512 0.512 1.536 1.024 2.048 0 0.512 2.56 7.68 16.384 21.504 0.512 0.512 1.024 0.512 1.536 1.024 2.048 1.024 3.072 1.536 3.584 1.536h0.512c8.192 0 18.432-10.24 22.528-14.848l28.672-28.672c12.288-12.288 13.312-30.208 13.312-33.792v-0.512L430.08 776.704c-2.56-30.208 9.728-59.392 32.768-78.848 20.992-17.92 48.64-25.088 75.776-20.48 27.136 4.608 50.176 21.504 64 45.056l109.568 192c1.024 1.536 1.536 3.072 2.56 4.608 0 3.584 6.144 16.384 16.896 18.944z" p-id="2447"></path><path d="M733.184 978.944c-2.048 0-4.608 0-6.656-0.512h-1.024c-31.232-5.632-46.08-33.792-49.664-42.496 0 0 0-0.512-0.512-0.512l-109.568-192c-7.68-13.312-20.48-22.528-35.84-25.088-14.848-2.56-30.208 1.536-41.984 11.264-12.8 10.752-19.456 27.136-17.92 44.032l7.168 82.432v4.096c0 8.704-1.536 39.424-25.088 62.976l-28.672 28.672c-8.192 8.192-27.136 27.648-53.248 26.624-8.192 0-16.384-3.072-24.064-7.68-3.584-2.048-6.656-4.608-9.216-7.68-15.36-15.872-22.016-27.648-25.088-35.328l-69.632-143.36c-1.024-2.048-2.56-3.072-4.096-4.096L97.28 713.216s-0.512 0-0.512-0.512c-6.144-2.048-37.376-13.824-46.592-43.52-10.752-31.744 14.848-57.856 23.552-66.048l29.184-29.184c22.016-22.016 50.176-25.088 60.928-25.088h4.096l82.432 5.632c15.872 1.024 32.256-5.632 42.496-17.92 10.24-11.776 14.336-27.136 11.776-42.496-2.56-15.36-11.776-28.16-25.088-35.84L86.528 347.648s-0.512-0.512-1.024-0.512c-5.632-2.56-34.304-16.384-39.424-47.104v-1.536c-3.584-31.744 16.384-50.688 23.04-57.344l65.536-65.536c25.6-25.6 59.904-28.672 81.408-23.552L519.68 230.4c25.6 6.656 53.248-1.024 72.192-19.968l88.576-88.576c23.04-23.04 84.992-77.312 156.672-77.312 37.888 0 71.168 14.336 99.328 42.496 28.16 28.16 42.496 61.44 42.496 98.816 0 74.752-58.88 139.264-76.8 157.184l-88.576 88.576c-18.944 18.944-26.624 46.592-19.968 72.192l77.824 303.616c5.12 21.504 2.048 55.808-23.552 81.92L783.36 954.368c-6.656 7.168-23.552 24.576-50.176 24.576z m-1.536-40.96c9.216 0.512 15.872-5.632 22.528-12.288l64.512-64.512c14.848-14.848 14.848-34.816 12.8-43.008l-77.824-303.104c-10.24-39.936 1.536-82.432 30.72-111.616l88.576-88.576c15.36-15.36 64.512-69.12 64.512-128 0-26.112-10.24-49.664-30.208-70.144-20.48-20.48-44.032-30.72-70.656-30.72-56.32 0-108.032 45.568-127.488 65.024l-88.576 88.576c-29.184 29.184-71.68 40.448-111.616 30.72L205.824 192c-8.192-2.048-27.648-2.048-42.496 12.8L97.28 270.848c-6.144 6.144-11.776 12.288-11.264 22.528 2.048 8.192 11.776 14.336 15.872 15.872 1.536 0.512 3.072 1.536 4.608 2.56l194.048 111.104c24.064 13.824 40.448 37.376 45.056 64.512 4.608 27.136-3.072 55.296-20.992 76.288-18.944 22.016-47.616 33.792-76.8 31.744l-82.432-5.632h-0.512c-4.608 0-20.992 1.536-32.768 13.312l-29.184 29.184c-4.608 4.608-16.384 16.384-13.824 24.064 0 0.512 0 0.512 0.512 1.024 2.56 9.216 15.872 15.36 20.48 16.896 1.536 0.512 3.584 1.536 5.12 2.048L256 743.424c10.24 4.608 18.432 13.312 23.552 23.04l70.144 144.384c0.512 0.512 0.512 1.536 1.024 2.048 0 0.512 2.56 7.68 16.384 21.504 0.512 0.512 1.024 0.512 1.536 1.024 2.048 1.024 3.072 1.536 3.584 1.536h0.512c8.192 0 18.432-10.24 22.528-14.848l28.672-28.672c12.288-12.288 13.312-30.208 13.312-33.792v-0.512L430.08 776.704c-2.56-30.208 9.728-59.392 32.768-78.848 20.992-17.92 48.64-25.088 75.776-20.48 27.136 4.608 50.176 21.504 64 45.056l109.568 192c1.024 1.536 1.536 3.072 2.56 4.608 0 3.584 6.144 16.384 16.896 18.944z" p-id="2448"></path><path d="M407.552 577.536l-18.432-12.8-18.432-13.312c15.36-21.504 19.456-56.832 10.24-83.968-4.096-11.776 2.048-24.576 13.824-28.672 11.776-4.096 24.576 2.048 28.672 13.824 14.848 40.96 8.192 91.136-15.872 124.928z m-47.104-154.624c-3.584 0-7.68-1.024-10.752-3.072L168.448 319.488c-10.752-6.144-14.848-19.968-8.704-30.72s19.968-14.848 30.72-8.704l180.736 100.864c10.752 6.144 14.848 19.968 8.704 30.72-4.096 7.168-11.776 11.264-19.456 11.264z" p-id="2449"></path></svg>